<?xml version="1.0" encoding="UTF-8"?>
<!DOCTYPE svg PUBLIC "-//W3C//DTD SVG 1.1//EN" "http://www.w3.org/Graphics/SVG/1.1/DTD/svg11.dtd">
<svg xmlns="http://www.w3.org/2000/svg" version="1.1" width="128px" height="128px" style="shape-rendering:geometricPrecision; text-rendering:geometricPrecision; image-rendering:optimizeQuality; fill-rule:evenodd; clip-rule:evenodd" xmlns:xlink="http://www.w3.org/1999/xlink">
<g><path style="opacity:0.869" fill="#e0e2e7" d="M 68.5,9.5 C 62.8867,10.5513 57.72,12.8847 53,16.5C 53.2373,14.0111 54.0707,11.6778 55.5,9.5C 59.9798,8.33758 64.3131,8.33758 68.5,9.5 Z"/></g>
<g><path style="opacity:1" fill="#eff1f2" d="M 72.5,10.5 C 78.0256,10.2365 83.0256,11.5699 87.5,14.5C 81.8871,16.7795 77.8871,20.7795 75.5,26.5C 70.8945,32.3825 67.8945,39.0492 66.5,46.5C 62.5,44.1667 58.5,41.8333 54.5,39.5C 52.351,36.6659 51.351,36.9993 51.5,40.5C 49.7376,40.3573 48.0709,40.6906 46.5,41.5C 45.2949,40.4231 44.6282,39.0898 44.5,37.5C 46.3786,37.6068 46.7119,37.1068 45.5,36C 46.646,35.3551 47.646,34.5217 48.5,33.5C 49.086,33.7093 49.586,34.0426 50,34.5C 50.1667,32.6667 50.3333,30.8333 50.5,29C 50.4065,25.702 49.4065,22.8686 47.5,20.5C 49.6271,19.8506 51.6271,19.5173 53.5,19.5C 59.1763,15.1623 65.5096,12.1623 72.5,10.5 Z"/></g>
<g><path style="opacity:1" fill="#5986d2" d="M 55.5,9.5 C 54.0707,11.6778 53.2373,14.0111 53,16.5C 57.72,12.8847 62.8867,10.5513 68.5,9.5C 70.099,9.23219 71.4324,9.56552 72.5,10.5C 65.5096,12.1623 59.1763,15.1623 53.5,19.5C 51.9582,18.6993 50.2915,18.366 48.5,18.5C 48.7759,15.2814 50.1093,12.6148 52.5,10.5C 53.609,10.4431 54.609,10.1098 55.5,9.5 Z"/></g>
<g><path style="opacity:1" fill="#dfe0e1" d="M 88.5,17.5 C 89.552,17.3505 90.552,17.5172 91.5,18C 91.1667,18.3333 90.8333,18.6667 90.5,19C 93.9011,27.4344 92.9011,35.2677 87.5,42.5C 84.428,45.8602 81.7614,48.8602 79.5,51.5C 76.1667,50.5 72.8333,49.5 69.5,48.5C 71.4378,42.3544 73.7711,36.3544 76.5,30.5C 78.6452,27.5672 80.8118,24.5672 83,21.5C 84.4321,19.5612 86.2654,18.2279 88.5,17.5 Z"/></g>
<g><path style="opacity:1" fill="#5c86d2" d="M 87.5,14.5 C 88.5,14.8333 89.1667,15.5 89.5,16.5C 88.8333,16.5 88.5,16.8333 88.5,17.5C 86.2654,18.2279 84.4321,19.5612 83,21.5C 80.8118,24.5672 78.6452,27.5672 76.5,30.5C 76.5394,29.4168 76.8728,28.4168 77.5,27.5C 76.7997,27.2129 76.1331,26.8795 75.5,26.5C 77.8871,20.7795 81.8871,16.7795 87.5,14.5 Z"/></g>
<g><path style="opacity:1" fill="#5281cb" d="M 32.5,19.5 C 33.1667,19.5 33.8333,19.5 34.5,19.5C 35.5419,21.7385 36.8753,23.9052 38.5,26C 37.4734,26.5133 36.4734,27.0133 35.5,27.5C 33.3939,25.2812 32.3939,22.6145 32.5,19.5 Z"/></g>
<g><path style="opacity:0.999" fill="#c1c4c3" d="M 88.5,17.5 C 88.5,16.8333 88.8333,16.5 89.5,16.5C 95.534,17.86 100.201,21.1934 103.5,26.5C 102.913,36.8703 99.5792,46.2036 93.5,54.5C 92.675,55.3857 91.675,55.719 90.5,55.5C 86.4632,54.9347 82.7966,53.6013 79.5,51.5C 81.7614,48.8602 84.428,45.8602 87.5,42.5C 92.9011,35.2677 93.9011,27.4344 90.5,19C 90.8333,18.6667 91.1667,18.3333 91.5,18C 90.552,17.5172 89.552,17.3505 88.5,17.5 Z"/></g>
<g><path style="opacity:1" fill="#7ab8ee" d="M 47.5,20.5 C 49.4065,22.8686 50.4065,25.702 50.5,29C 50.3333,30.8333 50.1667,32.6667 50,34.5C 49.586,34.0426 49.086,33.7093 48.5,33.5C 47.646,34.5217 46.646,35.3551 45.5,36C 46.7119,37.1068 46.3786,37.6068 44.5,37.5C 43.3747,35.8712 42.0414,34.3712 40.5,33C 41.6667,32.5 42.5,31.6667 43,30.5C 44,31.5 45,32.5 46,33.5C 46.6667,31.1667 46.6667,28.8333 46,26.5C 44.4931,27.5348 42.9931,27.3681 41.5,26C 43.3702,23.9604 45.3702,22.1271 47.5,20.5 Z"/></g>
<g><path style="opacity:1" fill="#a6a9a9" d="M 103.5,26.5 C 104.401,27.2905 105.068,28.2905 105.5,29.5C 106.926,38.9159 106.426,48.2493 104,57.5C 103.329,58.2524 102.496,58.5858 101.5,58.5C 98.6146,58.8064 95.9479,58.4731 93.5,57.5C 92.5,56.8333 91.5,56.1667 90.5,55.5C 91.675,55.719 92.675,55.3857 93.5,54.5C 99.5792,46.2036 102.913,36.8703 103.5,26.5 Z"/></g>
<g><path style="opacity:1" fill="#b9bbbb" d="M 32.5,19.5 C 32.3939,22.6145 33.3939,25.2812 35.5,27.5C 36.1667,28.5 36.8333,29.5 37.5,30.5C 37.1667,30.5 36.8333,30.5 36.5,30.5C 34.9826,30.5106 33.8159,31.1772 33,32.5C 29.2405,38.0741 25.7405,43.7408 22.5,49.5C 20.3242,45.1843 18.9909,40.5176 18.5,35.5C 21.3675,28.63 26.0341,23.2967 32.5,19.5 Z"/></g>
<g><path style="opacity:1" fill="#85bdf0" d="M 75.5,26.5 C 76.1331,26.8795 76.7997,27.2129 77.5,27.5C 76.8728,28.4168 76.5394,29.4168 76.5,30.5C 73.7711,36.3544 71.4378,42.3544 69.5,48.5C 69.5,48.8333 69.5,49.1667 69.5,49.5C 68.71,48.3915 68.21,47.0581 68,45.5C 67.6174,46.056 67.1174,46.3893 66.5,46.5C 67.8945,39.0492 70.8945,32.3825 75.5,26.5 Z"/></g>
<g><path style="opacity:1" fill="#cdd3d6" d="M 52.5,10.5 C 50.1093,12.6148 48.7759,15.2814 48.5,18.5C 50.2915,18.366 51.9582,18.6993 53.5,19.5C 51.6271,19.5173 49.6271,19.8506 47.5,20.5C 45.3702,22.1271 43.3702,23.9604 41.5,26C 42.9931,27.3681 44.4931,27.5348 46,26.5C 46.6667,28.8333 46.6667,31.1667 46,33.5C 45,32.5 44,31.5 43,30.5C 42.5,31.6667 41.6667,32.5 40.5,33C 42.0414,34.3712 43.3747,35.8712 44.5,37.5C 44.6282,39.0898 45.2949,40.4231 46.5,41.5C 48.0709,40.6906 49.7376,40.3573 51.5,40.5C 51.351,36.9993 52.351,36.6659 54.5,39.5C 52.6563,41.9341 50.6563,43.4341 48.5,44C 49.3679,48.1084 50.7013,51.9418 52.5,55.5C 53.3154,59.4462 54.8154,63.1129 57,66.5C 58.67,64.3017 60.67,63.9683 63,65.5C 64.3031,61.2571 65.8031,57.0905 67.5,53C 66.4655,52.7474 65.4655,51.914 64.5,50.5C 62.5493,53.954 61.0493,57.6206 60,61.5C 57.1491,56.1168 54.9825,50.4501 53.5,44.5C 53.4346,44.0618 53.6012,43.7284 54,43.5C 57.0823,45.625 60.2489,47.625 63.5,49.5C 64.548,48.452 65.548,47.452 66.5,46.5C 67.1174,46.3893 67.6174,46.056 68,45.5C 68.21,47.0581 68.71,48.3915 69.5,49.5C 68.4019,50.397 68.4019,51.2303 69.5,52C 77.754,56.1403 86.4207,58.9737 95.5,60.5C 97.6074,61.4682 99.9407,61.8016 102.5,61.5C 101.207,62.1582 99.7067,62.4915 98,62.5C 93.505,61.5789 89.005,61.0789 84.5,61C 79.765,64.5201 74.4316,66.5201 68.5,67C 67.6719,68.9923 66.3386,70.4923 64.5,71.5C 63.0119,68.8136 62.3453,69.1469 62.5,72.5C 60.64,71.9285 58.9733,71.9285 57.5,72.5C 55.7376,71.7377 54.7376,70.4044 54.5,68.5C 54.2634,65.3527 53.4301,62.3527 52,59.5C 43.5109,56.5038 37.0109,51.1704 32.5,43.5C 34.451,39.7706 36.7843,36.2706 39.5,33C 38.244,32.5831 37.5774,31.7498 37.5,30.5C 36.8333,29.5 36.1667,28.5 35.5,27.5C 36.4734,27.0133 37.4734,26.5133 38.5,26C 36.8753,23.9052 35.5419,21.7385 34.5,19.5C 34.4142,18.5041 34.7476,17.6708 35.5,17C 40.7419,13.712 46.4085,11.5453 52.5,10.5 Z"/></g>
<g><path style="opacity:1" fill="#5188d1" d="M 36.5,30.5 C 36.8333,30.5 37.1667,30.5 37.5,30.5C 37.5774,31.7498 38.244,32.5831 39.5,33C 36.7843,36.2706 34.451,39.7706 32.5,43.5C 31.2632,44.9649 30.2632,46.6316 29.5,48.5C 27.9925,50.1815 26.9925,52.1815 26.5,54.5C 25.3263,55.5137 24.6596,56.847 24.5,58.5C 23.8826,58.6107 23.3826,58.944 23,59.5C 22.51,58.2068 22.3433,56.8734 22.5,55.5C 25.8876,46.3855 30.5543,38.0522 36.5,30.5 Z"/></g>
<g><path style="opacity:1" fill="#355da6" d="M 105.5,29.5 C 106.167,30.1667 106.833,30.8333 107.5,31.5C 108.786,40.4972 108.786,49.4972 107.5,58.5C 110.545,58.4921 113.545,58.1587 116.5,57.5C 116.5,57.8333 116.5,58.1667 116.5,58.5C 114.75,59.8698 112.75,60.8698 110.5,61.5C 109.167,61.5 107.833,61.5 106.5,61.5C 106.719,60.325 106.386,59.325 105.5,58.5C 104.265,59.3398 103.265,60.3398 102.5,61.5C 99.9407,61.8016 97.6074,61.4682 95.5,60.5C 98.0821,60.9746 100.082,60.3079 101.5,58.5C 102.496,58.5858 103.329,58.2524 104,57.5C 106.426,48.2493 106.926,38.9159 105.5,29.5 Z"/></g>
<g><path style="opacity:1" fill="#838785" d="M 18.5,35.5 C 18.9909,40.5176 20.3242,45.1843 22.5,49.5C 20.3088,54.7377 18.3088,60.071 16.5,65.5C 15.0546,63.6064 13.3879,61.9397 11.5,60.5C 10.8939,51.2475 13.2272,42.9141 18.5,35.5 Z"/></g>
<g><path style="opacity:1" fill="#89c6f2" d="M 54.5,39.5 C 58.5,41.8333 62.5,44.1667 66.5,46.5C 65.548,47.452 64.548,48.452 63.5,49.5C 60.2489,47.625 57.0823,45.625 54,43.5C 53.6012,43.7284 53.4346,44.0618 53.5,44.5C 52.9033,44.7352 52.5699,45.2352 52.5,46C 53.8333,50 55.1667,54 56.5,58C 56.1667,58.5 55.8333,59 55.5,59.5C 54.4793,58.0986 53.4793,56.7653 52.5,55.5C 50.7013,51.9418 49.3679,48.1084 48.5,44C 50.6563,43.4341 52.6563,41.9341 54.5,39.5 Z"/></g>
<g><path style="opacity:1" fill="#7a7f83" d="M 107.5,31.5 C 113.712,39.1375 116.712,47.8042 116.5,57.5C 113.545,58.1587 110.545,58.4921 107.5,58.5C 108.786,49.4972 108.786,40.4972 107.5,31.5 Z"/></g>
<g><path style="opacity:1" fill="#5e7499" d="M 36.5,30.5 C 30.5543,38.0522 25.8876,46.3855 22.5,55.5C 20.522,58.6448 19.1886,62.1448 18.5,66C 19.1301,67.3102 20.1301,68.1435 21.5,68.5C 21.5,69.1667 21.5,69.8333 21.5,70.5C 21.5,71.5 21.5,72.5 21.5,73.5C 20.8333,73.5 20.5,73.8333 20.5,74.5C 19.5416,74.0472 18.7083,73.3805 18,72.5C 17.5357,73.0944 17.369,73.7611 17.5,74.5C 14.4756,71.118 12.4756,67.118 11.5,62.5C 11.5,61.8333 11.5,61.1667 11.5,60.5C 13.3879,61.9397 15.0546,63.6064 16.5,65.5C 18.3088,60.071 20.3088,54.7377 22.5,49.5C 25.7405,43.7408 29.2405,38.0741 33,32.5C 33.8159,31.1772 34.9826,30.5106 36.5,30.5 Z"/></g>
<g><path style="opacity:1" fill="#617297" d="M 69.5,49.5 C 69.5,49.1667 69.5,48.8333 69.5,48.5C 72.8333,49.5 76.1667,50.5 79.5,51.5C 82.7966,53.6013 86.4632,54.9347 90.5,55.5C 91.5,56.1667 92.5,56.8333 93.5,57.5C 85.1551,55.8295 77.1551,53.1628 69.5,49.5 Z"/></g>
<g><path style="opacity:1" fill="#bcbebd" d="M 32.5,43.5 C 37.0109,51.1704 43.5109,56.5038 52,59.5C 53.4301,62.3527 54.2634,65.3527 54.5,68.5C 45.8347,65.7484 38.3347,61.0818 32,54.5C 30.878,52.5932 30.0447,50.5932 29.5,48.5C 30.2632,46.6316 31.2632,44.9649 32.5,43.5 Z"/></g>
<g><path style="opacity:1" fill="#588ae0" d="M 69.5,49.5 C 77.1551,53.1628 85.1551,55.8295 93.5,57.5C 95.9479,58.4731 98.6146,58.8064 101.5,58.5C 100.082,60.3079 98.0821,60.9746 95.5,60.5C 86.4207,58.9737 77.754,56.1403 69.5,52C 68.4019,51.2303 68.4019,50.397 69.5,49.5 Z"/></g>
<g><path style="opacity:1" fill="#8d9090" d="M 26.5,54.5 C 28.0611,63.8966 33.3944,70.0632 42.5,73C 46.6322,74.8997 50.9655,75.733 55.5,75.5C 55.5,77.1667 55.5,78.8333 55.5,80.5C 43.2305,80.1863 31.8971,76.8529 21.5,70.5C 21.5,69.8333 21.5,69.1667 21.5,68.5C 22.5,65.1667 23.5,61.8333 24.5,58.5C 24.6596,56.847 25.3263,55.5137 26.5,54.5 Z"/></g>
<g><path style="opacity:1" fill="#2e5499" d="M 22.5,55.5 C 22.3433,56.8734 22.51,58.2068 23,59.5C 23.3826,58.944 23.8826,58.6107 24.5,58.5C 23.5,61.8333 22.5,65.1667 21.5,68.5C 20.1301,68.1435 19.1301,67.3102 18.5,66C 19.1886,62.1448 20.522,58.6448 22.5,55.5 Z"/></g>
<g><path style="opacity:1" fill="#6f9dda" d="M 53.5,44.5 C 54.9825,50.4501 57.1491,56.1168 60,61.5C 61.0493,57.6206 62.5493,53.954 64.5,50.5C 65.4655,51.914 66.4655,52.7474 67.5,53C 65.8031,57.0905 64.3031,61.2571 63,65.5C 60.67,63.9683 58.67,64.3017 57,66.5C 54.8154,63.1129 53.3154,59.4462 52.5,55.5C 53.4793,56.7653 54.4793,58.0986 55.5,59.5C 55.8333,59 56.1667,58.5 56.5,58C 55.1667,54 53.8333,50 52.5,46C 52.5699,45.2352 52.9033,44.7352 53.5,44.5 Z"/></g>
<g><path style="opacity:1" fill="#656a6d" d="M 116.5,58.5 C 117.625,59.3478 117.625,60.3478 116.5,61.5C 113.436,64.5703 110.103,67.2369 106.5,69.5C 106.526,66.0377 107.859,63.3711 110.5,61.5C 112.75,60.8698 114.75,59.8698 116.5,58.5 Z"/></g>
<g><path style="opacity:1" fill="#2f5aa1" d="M 116.5,61.5 C 116.5,61.8333 116.5,62.1667 116.5,62.5C 113.716,68.4511 109.383,72.9511 103.5,76C 102.117,77.2708 101.117,78.7708 100.5,80.5C 99.5,80.5 98.5,80.5 97.5,80.5C 97.44,79.9569 97.1067,79.6236 96.5,79.5C 88.5776,82.333 80.5776,84.333 72.5,85.5C 72.4142,86.4959 72.7476,87.3292 73.5,88C 72.5842,88.2784 71.9175,88.7784 71.5,89.5C 70.8333,89.1667 70.1667,88.8333 69.5,88.5C 69.5858,87.5041 69.2524,86.6708 68.5,86C 70.8633,85.4115 71.8633,83.9115 71.5,81.5C 71.5,81.1667 71.5,80.8333 71.5,80.5C 80.7752,79.6771 89.7752,77.6771 98.5,74.5C 100.595,71.1296 101.928,67.463 102.5,63.5C 104.124,61.8632 105.124,62.1966 105.5,64.5C 104.655,67.1926 104.155,69.8593 104,72.5C 105.045,71.6266 105.878,70.6266 106.5,69.5C 110.103,67.2369 113.436,64.5703 116.5,61.5 Z"/></g>
<g><path style="opacity:1" fill="#5b6883" d="M 116.5,62.5 C 117.338,62.8417 117.672,63.5084 117.5,64.5C 114.243,70.9254 109.41,75.9254 103,79.5C 100.014,86.8054 96.514,93.8054 92.5,100.5C 91.6236,100.631 90.9569,100.298 90.5,99.5C 94.6255,93.5822 97.9589,87.2489 100.5,80.5C 101.117,78.7708 102.117,77.2708 103.5,76C 109.383,72.9511 113.716,68.4511 116.5,62.5 Z"/></g>
<g><path style="opacity:1" fill="#a4a7a5" d="M 29.5,48.5 C 30.0447,50.5932 30.878,52.5932 32,54.5C 38.3347,61.0818 45.8347,65.7484 54.5,68.5C 54.7376,70.4044 55.7376,71.7377 57.5,72.5C 57.5,73.8333 57.5,75.1667 57.5,76.5C 56.8333,77.8333 56.1667,79.1667 55.5,80.5C 55.5,78.8333 55.5,77.1667 55.5,75.5C 50.9655,75.733 46.6322,74.8997 42.5,73C 33.3944,70.0632 28.0611,63.8966 26.5,54.5C 26.9925,52.1815 27.9925,50.1815 29.5,48.5 Z"/></g>
<g><path style="opacity:1" fill="#8f9291" d="M 102.5,63.5 C 101.928,67.463 100.595,71.1296 98.5,74.5C 89.7752,77.6771 80.7752,79.6771 71.5,80.5C 69.2901,80.106 67.9568,78.7727 67.5,76.5C 78.1473,74.5636 87.814,70.3969 96.5,64C 98.4727,63.5045 100.473,63.3379 102.5,63.5 Z"/></g>
<g><path style="opacity:1" fill="#a0a5a8" d="M 110.5,61.5 C 107.859,63.3711 106.526,66.0377 106.5,69.5C 105.878,70.6266 105.045,71.6266 104,72.5C 104.155,69.8593 104.655,67.1926 105.5,64.5C 105.124,62.1966 104.124,61.8632 102.5,63.5C 100.473,63.3379 98.4727,63.5045 96.5,64C 87.814,70.3969 78.1473,74.5636 67.5,76.5C 66.2632,75.0351 65.2632,73.3684 64.5,71.5C 66.3386,70.4923 67.6719,68.9923 68.5,67C 74.4316,66.5201 79.765,64.5201 84.5,61C 89.005,61.0789 93.505,61.5789 98,62.5C 99.7067,62.4915 101.207,62.1582 102.5,61.5C 103.265,60.3398 104.265,59.3398 105.5,58.5C 106.386,59.325 106.719,60.325 106.5,61.5C 107.833,61.5 109.167,61.5 110.5,61.5 Z"/></g>
<g><path style="opacity:1" fill="#465161" d="M 11.5,62.5 C 12.4756,67.118 14.4756,71.118 17.5,74.5C 17.2925,79.6362 17.9592,84.6362 19.5,89.5C 13.2403,81.4424 10.5736,72.4424 11.5,62.5 Z"/></g>
<g><path style="opacity:1" fill="#bbc2ce" d="M 21.5,73.5 C 31.2646,80.5327 42.2646,84.1994 54.5,84.5C 55.1667,84.5 55.5,84.8333 55.5,85.5C 55.5,85.8333 55.5,86.1667 55.5,86.5C 42.8127,85.9662 31.1461,82.2995 20.5,75.5C 20.5,75.1667 20.5,74.8333 20.5,74.5C 20.5,73.8333 20.8333,73.5 21.5,73.5 Z"/></g>
<g><path style="opacity:1" fill="#335dab" d="M 21.5,70.5 C 31.8971,76.8529 43.2305,80.1863 55.5,80.5C 54.7659,81.7079 54.4326,83.0413 54.5,84.5C 42.2646,84.1994 31.2646,80.5327 21.5,73.5C 21.5,72.5 21.5,71.5 21.5,70.5 Z"/></g>
<g><path style="opacity:1" fill="#16335b" d="M 20.5,74.5 C 20.5,74.8333 20.5,75.1667 20.5,75.5C 20.5,78.1667 20.5,80.8333 20.5,83.5C 20.3253,85.6208 20.6586,87.6208 21.5,89.5C 22.2341,90.7079 22.5674,92.0413 22.5,93.5C 21.0256,92.5637 20.0256,91.2303 19.5,89.5C 17.9592,84.6362 17.2925,79.6362 17.5,74.5C 17.369,73.7611 17.5357,73.0944 18,72.5C 18.7083,73.3805 19.5416,74.0472 20.5,74.5 Z"/></g>
<g><path style="opacity:1" fill="#7bafd9" d="M 57.5,76.5 C 58.64,79.0248 59.3067,81.6915 59.5,84.5C 61.8333,84.5 64.1667,84.5 66.5,84.5C 66.238,83.0222 66.5713,81.6888 67.5,80.5C 68.7362,81.2458 70.0695,81.5792 71.5,81.5C 71.8633,83.9115 70.8633,85.4115 68.5,86C 69.2524,86.6708 69.5858,87.5041 69.5,88.5C 65.5857,88.1154 61.919,87.1154 58.5,85.5C 57.5,85.5 56.5,85.5 55.5,85.5C 55.5,84.8333 55.1667,84.5 54.5,84.5C 54.4326,83.0413 54.7659,81.7079 55.5,80.5C 56.1667,79.1667 56.8333,77.8333 57.5,76.5 Z"/></g>
<g><path style="opacity:1" fill="#5583c8" d="M 64.5,71.5 C 65.2632,73.3684 66.2632,75.0351 67.5,76.5C 67.9568,78.7727 69.2901,80.106 71.5,80.5C 71.5,80.8333 71.5,81.1667 71.5,81.5C 70.0695,81.5792 68.7362,81.2458 67.5,80.5C 66.5713,81.6888 66.238,83.0222 66.5,84.5C 64.1667,84.5 61.8333,84.5 59.5,84.5C 59.3067,81.6915 58.64,79.0248 57.5,76.5C 57.5,75.1667 57.5,73.8333 57.5,72.5C 58.9733,71.9285 60.64,71.9285 62.5,72.5C 62.3453,69.1469 63.0119,68.8136 64.5,71.5 Z"/></g>
<g><path style="opacity:0.545" fill="#3b3f3d" d="M 117.5,64.5 C 116.554,78.8909 110.887,91.0576 100.5,101C 99.9056,101.464 99.2389,101.631 98.5,101.5C 96.2646,101.795 94.2646,101.461 92.5,100.5C 96.514,93.8054 100.014,86.8054 103,79.5C 109.41,75.9254 114.243,70.9254 117.5,64.5 Z"/></g>
<g><path style="opacity:1" fill="#b1b8c9" d="M 97.5,80.5 C 97.5,81.1667 97.1667,81.5 96.5,81.5C 89.4404,84.1797 82.1071,85.8464 74.5,86.5C 73.8333,86.1667 73.1667,85.8333 72.5,85.5C 80.5776,84.333 88.5776,82.333 96.5,79.5C 97.1067,79.6236 97.44,79.9569 97.5,80.5 Z"/></g>
<g><path style="opacity:1" fill="#535755" d="M 20.5,75.5 C 31.1461,82.2995 42.8127,85.9662 55.5,86.5C 55.4828,88.5648 55.1495,90.5648 54.5,92.5C 53.1213,93.6089 51.4547,94.2755 49.5,94.5C 45.5851,93.3831 41.5851,92.5498 37.5,92C 31.4409,89.8354 25.7743,87.002 20.5,83.5C 20.5,80.8333 20.5,78.1667 20.5,75.5 Z"/></g>
<g><path style="opacity:1" fill="#424748" d="M 20.5,83.5 C 25.7743,87.002 31.4409,89.8354 37.5,92C 41.5851,92.5498 45.5851,93.3831 49.5,94.5C 51.4547,94.2755 53.1213,93.6089 54.5,92.5C 54.5,94.5 54.5,96.5 54.5,98.5C 54.4672,102.869 54.8005,107.202 55.5,111.5C 51.1565,110.442 46.8232,109.276 42.5,108C 38.5411,100.375 32.8744,94.3748 25.5,90C 24.2068,89.51 22.8734,89.3433 21.5,89.5C 20.6586,87.6208 20.3253,85.6208 20.5,83.5 Z"/></g>
<g><path style="opacity:1" fill="#54585a" d="M 96.5,81.5 C 94.3587,87.7867 91.1921,93.4534 87,98.5C 81.6834,95.6831 77.5167,91.6831 74.5,86.5C 82.1071,85.8464 89.4404,84.1797 96.5,81.5 Z"/></g>
<g><path style="opacity:1" fill="#272e2e" d="M 21.5,89.5 C 22.8734,89.3433 24.2068,89.51 25.5,90C 32.8744,94.3748 38.5411,100.375 42.5,108C 46.8232,109.276 51.1565,110.442 55.5,111.5C 54.8005,107.202 54.4672,102.869 54.5,98.5C 55.404,99.209 55.7373,100.209 55.5,101.5C 56.5,101.5 57.5,101.5 58.5,101.5C 58.2572,104.883 58.9239,108.049 60.5,111C 66.188,111.554 71.8546,111.387 77.5,110.5C 77.7352,111.097 78.2352,111.43 79,111.5C 81.2806,110.224 83.2806,108.557 85,106.5C 86.8709,107.668 88.3709,107.168 89.5,105C 91.4727,104.505 93.4727,104.338 95.5,104.5C 94.6935,105.728 93.6935,106.728 92.5,107.5C 91.8333,107.5 91.5,107.833 91.5,108.5C 73.6365,116.221 55.6365,116.221 37.5,108.5C 37.1583,107.662 36.4916,107.328 35.5,107.5C 32.1646,104.399 28.6646,101.399 25,98.5C 23.9055,96.9221 23.0722,95.2554 22.5,93.5C 22.5674,92.0413 22.2341,90.7079 21.5,89.5 Z"/></g>
<g><path style="opacity:1" fill="#204175" d="M 55.5,85.5 C 56.5,85.5 57.5,85.5 58.5,85.5C 58.5,90.8333 58.5,96.1667 58.5,101.5C 57.5,101.5 56.5,101.5 55.5,101.5C 55.7373,100.209 55.404,99.209 54.5,98.5C 54.5,96.5 54.5,94.5 54.5,92.5C 55.1495,90.5648 55.4828,88.5648 55.5,86.5C 55.5,86.1667 55.5,85.8333 55.5,85.5 Z"/></g>
<g><path style="opacity:1" fill="#183966" d="M 97.5,80.5 C 98.5,80.5 99.5,80.5 100.5,80.5C 97.9589,87.2489 94.6255,93.5822 90.5,99.5C 90.9569,100.298 91.6236,100.631 92.5,100.5C 94.2646,101.461 96.2646,101.795 98.5,101.5C 97.8333,102.833 96.8333,103.833 95.5,104.5C 93.4727,104.338 91.4727,104.505 89.5,105C 88.3709,107.168 86.8709,107.668 85,106.5C 83.2806,108.557 81.2806,110.224 79,111.5C 78.2352,111.43 77.7352,111.097 77.5,110.5C 80.4789,108.188 83.1456,105.521 85.5,102.5C 80.2115,98.8797 75.5448,94.5464 71.5,89.5C 71.9175,88.7784 72.5842,88.2784 73.5,88C 72.7476,87.3292 72.4142,86.4959 72.5,85.5C 73.1667,85.8333 73.8333,86.1667 74.5,86.5C 77.5167,91.6831 81.6834,95.6831 87,98.5C 91.1921,93.4534 94.3587,87.7867 96.5,81.5C 97.1667,81.5 97.5,81.1667 97.5,80.5 Z"/></g>
<g><path style="opacity:1" fill="#4a4f56" d="M 58.5,85.5 C 61.919,87.1154 65.5857,88.1154 69.5,88.5C 70.1667,88.8333 70.8333,89.1667 71.5,89.5C 75.5448,94.5464 80.2115,98.8797 85.5,102.5C 83.1456,105.521 80.4789,108.188 77.5,110.5C 71.8546,111.387 66.188,111.554 60.5,111C 58.9239,108.049 58.2572,104.883 58.5,101.5C 58.5,96.1667 58.5,90.8333 58.5,85.5 Z"/></g>
<g><path style="opacity:0.186" fill="#000000" d="M 35.5,107.5 C 35.8417,108.338 36.5084,108.672 37.5,108.5C 55.6365,116.221 73.6365,116.221 91.5,108.5C 92.1667,108.5 92.5,108.167 92.5,107.5C 99.2057,107.448 105.872,107.948 112.5,109C 117.973,110.388 118.64,112.722 114.5,116C 108.844,116.998 103.177,117.832 97.5,118.5C 72.6594,118.839 47.6594,118.339 22.5,117C 20.1116,116.697 17.9449,115.863 16,114.5C 15.2888,112.633 15.7888,111.133 17.5,110C 23.4381,108.778 29.4381,107.945 35.5,107.5 Z"/></g>
</svg>
